HIERARCHY
ROOT Hips
{
	OFFSET -0.001795 -0.223333 0.028219
	CHANNELS 6 Xposition Yposition Zposition Zrotation Yrotation Xrotation 
	JOINT LeftUpLeg
	{
		OFFSET 0.069520 -0.091406 -0.006815
		CHANNELS 3 Zrotation Yrotation Xrotation
		JOINT LeftLeg
		{
			OFFSET 0.034277 -0.375199 -0.004496
			CHANNELS 3 Zrotation Yrotation Xrotation
			JOINT LeftFoot
			{
				OFFSET -0.013596 -0.397961 -0.043693
				CHANNELS 3 Zrotation Yrotation Xrotation
				JOINT LeftToe
				{
					OFFSET 0.026358 -0.055791 0.119288
					CHANNELS 3 Zrotation Yrotation Xrotation
					End Site
					{
						OFFSET 0.000000 0.000000 0.000000
					}
				}
			}
		}
	}
	JOINT RightUpLeg
	{
		OFFSET -0.067670 -0.090522 -0.004320
		CHANNELS 3 Zrotation Yrotation Xrotation
		JOINT RightLeg
		{
			OFFSET -0.038290 -0.382569 -0.008850
			CHANNELS 3 Zrotation Yrotation Xrotation
			JOINT RightFoot
			{
				OFFSET 0.015774 -0.398415 -0.042312
				CHANNELS 3 Zrotation Yrotation Xrotation
				JOINT RightToe
				{
					OFFSET -0.025372 -0.048144 0.123348
					CHANNELS 3 Zrotation Yrotation Xrotation
					End Site
					{
						OFFSET 0.000000 0.000000 0.000000
					}
				}
			}
		}
	}
	JOINT Spine
	{
		OFFSET -0.002533 0.108963 -0.026696
		CHANNELS 3 Zrotation Yrotation Xrotation
		JOINT Spine1
		{
			OFFSET 0.005487 0.135180 0.001092
			CHANNELS 3 Zrotation Yrotation Xrotation
			JOINT Spine2
			{
				OFFSET 0.001457 0.052922 0.025425
				CHANNELS 3 Zrotation Yrotation Xrotation
				JOINT Neck
				{
					OFFSET -0.002778 0.213870 -0.042857
					CHANNELS 3 Zrotation Yrotation Xrotation
					JOINT Head
					{
						OFFSET 0.005152 0.064970 0.051349
						CHANNELS 3 Zrotation Yrotation Xrotation
						End Site
						{
							OFFSET 0.000000 0.000000 0.000000
						}
					}
				}
				JOINT LeftShoulder
				{
					OFFSET 0.078845 0.121749 -0.034090
					CHANNELS 3 Zrotation Yrotation Xrotation
					JOINT LeftArm
					{
						OFFSET 0.090977 0.030469 -0.008868
						CHANNELS 3 Zrotation Yrotation Xrotation
						JOINT LeftForeArm
						{
							OFFSET 0.259612 -0.012772 -0.027456
							CHANNELS 3 Zrotation Yrotation Xrotation
							JOINT LeftHand
							{
								OFFSET 0.249234 0.008986 -0.001171
								CHANNELS 3 Zrotation Yrotation Xrotation
								End Site
								{
									OFFSET 0.000000 0.000000 0.000000
								}
							}
						}
					}
				}
				JOINT RightShoulder
				{
					OFFSET -0.081759 0.118833 -0.038615
					CHANNELS 3 Zrotation Yrotation Xrotation
					JOINT RightArm
					{
						OFFSET -0.096012 0.032551 -0.009143
						CHANNELS 3 Zrotation Yrotation Xrotation
						JOINT RightForeArm
						{
							OFFSET -0.253742 -0.013329 -0.021401
							CHANNELS 3 Zrotation Yrotation Xrotation
							JOINT RightHand
							{
								OFFSET -0.255298 0.007772 -0.005559
								CHANNELS 3 Zrotation Yrotation Xrotation
								End Site
								{
									OFFSET 0.000000 0.000000 0.000000
								}
							}
						}
					}
				}
			}
		}
	}
}
MOTION
Frames: 7
Frame Time: 0.050000
0.000000 0.960399 0.000000 -0.259542 1.047423 2.791149 4.898843 -0.243080 -2.896507 -0.573305 0.139142 -2.689412 -0.978807 2.843403 11.186175 0.000000 0.000000 0.000000 -3.037254 0.302401 -2.930899 -1.093812 0.094338 -0.461944 -0.417844 -5.073484 10.211081 0.000000 0.000000 0.000000 1.704596 0.017453 -0.870621 -1.125499 0.586260 -2.768535 -1.191456 0.746035 8.639515 2.672894 -0.204235 -17.708087 0.000000 0.000000 0.000000 -20.534241 -9.415400 2.952578 -53.958238 -9.628238 -2.424600 -6.017685 -20.640110 1.855224 0.000000 0.000000 0.000000 18.238029 6.282559 2.172911 59.337519 5.249495 -3.607754 4.689116 17.745704 1.277067 0.000000 0.000000 0.000000 
-0.000184 0.958506 0.000821 -0.268473 1.421850 3.339933 4.594273 -0.254968 -2.925147 0.100300 0.108732 -3.422622 -1.486485 1.936448 10.944381 0.000000 0.000000 0.000000 -3.496683 0.321062 -3.148799 -0.373871 0.027999 -0.286396 -0.698992 -5.173382 8.893266 0.000000 0.000000 0.000000 1.352093 0.062984 -1.731377 -1.121621 0.578468 -2.363772 -1.030057 0.709015 8.343067 2.653010 -0.008378 -19.402378 0.000000 0.000000 0.000000 -20.760168 -9.465642 2.925444 -54.360347 -10.115856 -2.175459 -5.960715 -21.163783 1.888062 0.000000 0.000000 0.000000 17.996654 6.086077 2.091998 59.689633 5.247809 -3.583254 5.681876 18.487600 1.483380 0.000000 0.000000 0.000000 
-0.000313 0.957996 0.001681 -0.146331 1.506037 3.516509 4.216815 -0.289510 -3.510601 0.449180 0.037918 -2.236692 -1.804318 1.048986 10.064156 0.000000 0.000000 0.000000 -3.440602 0.334366 -3.325014 -0.553725 0.060211 0.016365 -0.952689 -5.806227 9.296868 0.000000 0.000000 0.000000 1.258783 0.069201 -1.862515 -1.197995 0.638048 -3.700987 -1.236359 0.459655 9.182237 2.340605 0.106951 -19.035555 0.000000 0.000000 0.000000 -20.288629 -8.929218 2.721886 -54.596773 -10.533045 -2.097049 -5.942677 -20.237723 1.813674 0.000000 0.000000 0.000000 18.510329 7.534418 2.859744 59.023975 5.053965 -3.734791 5.476955 18.822346 1.478876 0.000000 0.000000 0.000000 
-0.000461 0.957552 0.002739 -0.291946 1.713815 3.865282 4.449169 -0.309023 -3.806557 0.144691 0.069986 -2.404621 -1.930345 0.927787 10.247027 0.000000 0.000000 0.000000 -3.361562 0.366932 -3.754390 -0.309514 0.038549 0.125892 -1.375023 -6.654915 9.360370 0.000000 0.000000 0.000000 0.937024 0.104680 -2.603553 -1.303569 0.664788 -2.565491 -0.634337 -0.350178 7.916084 2.071838 0.094521 -18.019868 0.000000 0.000000 0.000000 -20.388844 -8.713018 2.784293 -54.817773 -10.292152 -2.124362 -5.672527 -20.147139 1.771383 0.000000 0.000000 0.000000 18.354122 8.083292 2.901443 58.564453 4.833089 -3.659627 6.000082 19.310698 1.571455 0.000000 0.000000 0.000000 
-0.000668 0.957509 0.003880 -0.302852 1.564314 3.482182 4.117845 -0.280272 -3.329749 0.531770 0.032208 -2.271084 -1.695307 1.282149 10.153245 0.000000 0.000000 0.000000 -3.123787 0.323187 -3.172494 -0.574469 0.060323 -0.033486 -1.507977 -6.949422 9.387336 0.000000 0.000000 0.000000 0.815320 0.096329 -2.401625 -1.332061 0.682728 -2.856640 -0.627069 -0.528947 8.029679 2.018601 0.054102 -17.569071 0.000000 0.000000 0.000000 -20.595922 -8.790855 2.907050 -54.470442 -10.415773 -2.089368 -6.132368 -19.698227 1.816402 0.000000 0.000000 0.000000 18.390795 7.963078 2.765919 58.447462 5.164649 -3.498155 6.858846 20.596162 1.825720 0.000000 0.000000 0.000000 
-0.000841 0.957247 0.004870 -0.351660 1.266022 3.350060 4.127807 -0.259672 -3.015055 0.360216 0.055274 -2.506331 -1.235574 1.989707 10.021865 0.000000 0.000000 0.000000 -3.021328 0.315360 -3.059924 -0.581861 0.064845 0.057030 -1.359422 -6.520132 8.817204 0.000000 0.000000 0.000000 0.631132 0.095751 -2.376628 -1.274516 0.650542 -2.594694 -0.403900 -0.799422 7.554783 1.960761 0.022334 -17.352524 0.000000 0.000000 0.000000 -20.838523 -8.573468 2.906080 -54.242995 -9.938967 -2.284515 -5.922634 -19.760421 1.796230 0.000000 0.000000 0.000000 17.853816 8.567526 2.950661 58.756277 5.741745 -3.168245 7.009739 21.727952 1.946872 0.000000 0.000000 0.000000 
-0.000999 0.957070 0.005461 -0.448150 0.720573 3.230682 4.104094 -0.243340 -2.808978 0.548513 0.041685 -2.580755 -0.964770 2.493817 10.279940 0.000000 0.000000 0.000000 -2.956457 0.306935 -2.925939 -0.523479 0.062168 0.150395 -1.142240 -6.040515 8.513721 0.000000 0.000000 0.000000 0.632088 0.089285 -2.212312 -1.394536 0.701268 -2.643992 -0.329738 -0.781124 7.415198 2.140069 -0.111840 -17.386201 0.000000 0.000000 0.000000 -20.641819 -7.915509 2.616461 -54.073119 -9.254973 -2.592692 -6.508358 -20.337351 1.963634 0.000000 0.000000 0.000000 17.882496 8.524148 2.845627 58.616075 6.081111 -2.973848 7.134346 22.920574 2.080280 0.000000 0.000000 0.000000 
